<?xml version="1.0" encoding="UTF-8" standalone="no"?>
<!DOCTYPE svg PUBLIC "-//W3C//DTD SVG 1.1//EN" "http://www.w3.org/Graphics/SVG/1.1/DTD/svg11.dtd">
<svg version="1.1" xmlns="http://www.w3.org/2000/svg" xmlns:xlink="http://www.w3.org/1999/xlink" preserveAspectRatio="xMidYMid meet" viewBox="0 0 640 640" width="640" height="640"><defs><path d="M627.45 320C627.45 492.41 487.48 632.38 315.07 632.38C142.67 632.38 2.7 492.41 2.7 320C2.7 147.59 142.67 7.62 315.07 7.62C487.48 7.62 627.45 147.59 627.45 320Z" id="a1xYPvOswi"></path><path d="M335.78 256.63L336.14 335.06L359.74 334.95L360.27 450.72L319.47 450.9L317.99 450.86L316.52 450.72L315.08 450.5L313.65 450.18L312.23 449.78L310.84 449.28L309.47 448.71L308.12 448.05L306.79 447.31L305.48 446.49L304.2 445.59L302.95 444.62L301.72 443.57L300.53 442.45L299.36 441.27L298.22 440.01L297.12 438.69L296.05 437.3L295.01 435.85L294.01 434.34L293.05 432.77L292.12 431.14L291.24 429.46L290.39 427.73L289.59 425.94L288.82 424.1L288.11 422.22L287.43 420.29L286.81 418.31L286.23 416.29L285.7 414.24L285.22 412.14L284.79 410.01L284.41 407.84L284.08 405.64L283.81 403.4L283.6 401.14L283.44 398.85L283.34 396.53L283.3 394.19L282.41 197.98L282.43 195.64L282.51 193.32L282.65 191.03L282.84 188.76L283.09 186.53L283.39 184.32L283.75 182.15L284.16 180.01L284.62 177.91L285.14 175.85L285.7 173.83L286.31 171.85L286.96 169.91L287.66 168.02L288.41 166.18L289.2 164.38L290.03 162.64L290.9 160.95L291.81 159.31L292.76 157.74L293.74 156.22L294.77 154.76L295.83 153.36L296.92 152.03L298.04 150.76L299.2 149.56L300.39 148.43L301.6 147.38L302.85 146.39L304.12 145.48L305.41 144.65L306.74 143.9L308.08 143.23L309.45 142.64L310.84 142.13L312.25 141.72L313.67 141.39L315.12 141.15L316.58 141L318.06 140.94L358.86 140.76L359.39 256.52L335.78 256.63ZM317.44 168.99L316.7 169.07L315.96 169.19L315.24 169.36L314.52 169.57L313.82 169.82L313.12 170.12L312.44 170.46L311.77 170.85L311.11 171.27L310.47 171.73L309.84 172.23L309.22 172.76L308.62 173.34L308.03 173.94L307.46 174.59L306.91 175.26L306.37 175.97L305.85 176.71L305.35 177.48L304.87 178.28L304.41 179.11L303.96 179.97L303.54 180.85L303.14 181.76L302.77 182.7L302.41 183.66L302.08 184.64L301.77 185.65L301.48 186.67L301.22 187.72L300.99 188.79L300.78 189.87L300.6 190.97L300.45 192.09L300.32 193.22L300.22 194.37L300.15 195.54L300.11 196.71L300.1 197.9L300.99 394.11L301.01 395.3L301.06 396.47L301.14 397.64L301.25 398.78L301.39 399.92L301.55 401.03L301.74 402.13L301.96 403.22L302.21 404.28L302.48 405.32L302.77 406.35L303.09 407.35L303.43 408.33L303.79 409.28L304.18 410.22L304.59 411.12L305.02 412L305.47 412.86L305.94 413.68L306.43 414.48L306.93 415.24L307.46 415.98L308 416.68L308.56 417.35L309.14 417.99L309.73 418.59L310.34 419.16L310.96 419.69L311.6 420.18L312.24 420.64L312.91 421.05L313.58 421.43L314.27 421.76L314.96 422.06L315.67 422.31L316.39 422.51L317.11 422.67L317.85 422.79L318.59 422.86L319.34 422.88L342.45 422.77L342.18 363.05L318.57 363.16L317.96 228.69L341.57 228.58L341.3 168.86L318.19 168.96L317.44 168.99Z" id="i1fW6200Ms"></path><path d="M156.66 529.81L156.66 480.6L132.38 480.6L132.38 456.01L156.66 456.01L156.66 406.45L132.38 406.45L132.38 381.86L156.66 381.86L156.66 332.29L132.38 332.29L132.38 307.71L156.66 307.71L156.66 258.14L132.38 258.14L132.38 233.55L156.66 233.55L156.66 183.99L132.38 183.99L132.38 159.4L156.66 159.4L156.66 110.19L497.76 110.19L497.76 529.81L156.66 529.81ZM180.92 159.4L205.2 159.4L205.2 183.99L180.92 183.99L180.92 233.55L205.2 233.55L205.2 258.14L180.92 258.14L180.92 307.71L205.2 307.71L205.2 332.29L180.92 332.29L180.92 381.86L205.2 381.86L205.2 406.45L180.92 406.45L180.92 456.01L205.2 456.01L205.2 480.6L180.92 480.6L180.92 505.22L473.51 505.22L473.51 134.78L180.92 134.78L180.92 159.4Z" id="i1Omhvfzpi"></path><path d="M177.97 130L478.97 130L478.97 510L177.97 510L177.97 130Z" id="dmi0o3CmZ"></path></defs><g><g><g><g><use xlink:href="#a1xYPvOswi" opacity="1" fill-opacity="0" stroke="#000000" stroke-width="11" stroke-opacity="1"></use></g></g><g><use xlink:href="#i1fW6200Ms" opacity="1" fill="#000000" fill-opacity="1"></use><g><use xlink:href="#i1fW6200Ms" opacity="1" fill-opacity="0" stroke="#000000" stroke-width="1" stroke-opacity="0"></use></g></g><g><use xlink:href="#i1Omhvfzpi" opacity="1" fill="#000000" fill-opacity="1"></use><g><use xlink:href="#i1Omhvfzpi" opacity="1" fill-opacity="0" stroke="#000000" stroke-width="1" stroke-opacity="0"></use></g></g><g><use xlink:href="#dmi0o3CmZ" opacity="1" fill="#030001" fill-opacity="0"></use><g><use xlink:href="#dmi0o3CmZ" opacity="1" fill-opacity="0" stroke="#ffffff" stroke-width="11" stroke-opacity="1"></use></g></g></g></g></svg>