<?xml version="1.0"?>
<svg width="448" height="448" xmlns="http://www.w3.org/2000/svg" xmlns:svg="http://www.w3.org/2000/svg">
 <g class="layer">
  <title>Layer 1</title>
  <path d="m0,432l448,0l0,16l-448,0l0,-16zm0,0" id="svg_2"/>
  <path d="m172,266.199219c-7.729919,-0.023438 -15.415285,-1.236329 -22.811058,-3.597657l0,15.597657c-0.038984,3.439454 -1.486952,6.691407 -3.981911,8.917968l26.792969,23.484375l26.792969,-23.472655c-2.494959,-2.226563 -3.948496,-5.484375 -3.981911,-8.929688l0,-15.597657c-7.395773,2.361329 -15.081139,3.57422 -22.811058,3.597657zm0,0" fill="black" id="svg_3"/>
  <path d="m51.000012,413l27.807692,0l0,-51.709798l18.538461,0l0,51.709798l148.30769,0l0,-51.709798l18.538461,0l0,51.709798l27.807692,0l0,-56.052613c-0.076942,-23.299707 -14.039626,-43.700838 -34.16671,-49.912075l-43.693923,-13.265785l-36.705791,34.126447c-3.439754,3.191464 -8.427397,3.191464 -11.86715,0l-36.705791,-34.126447l-43.721078,13.275884c-20.118033,6.216286 -34.071664,26.612367 -34.139554,49.901976l0,56.052613zm0,0" fill="black" id="svg_5"/>
  <path d="m424,144c4.417969,0 8,-3.582031 8,-8l0,-112c0,-4.417969 -3.582031,-8 -8,-8l-144,0c-4.417969,0 -8,3.582031 -8,8l0,8l120,0c13.253906,0 24,10.746094 24,24l0,88l8,0zm0,0" fill="black" id="svg_6"/>
  <path d="m240,56l0,8l160,0l0,-8c0,-4.417969 -3.582031,-8 -8,-8l-144,0c-4.417969,0 -8,3.582031 -8,8zm0,0" id="svg_7"/>
  <path d="m248,176l144,0c4.417969,0 8,-3.582031 8,-8l0,-88l-160,0l0,88c0,4.417969 3.582031,8 8,8zm96,-64l16,0l0,16l-16,0l0,-16zm-32,0l16,0l0,16l-16,0l0,-16zm-32,0l16,0l0,16l-16,0l0,-16zm0,0" fill="black" id="svg_8"/>
  <path d="m136.740487,224.785856q33.333395,22.892763 66.588972,0m-59.364599,-45.213616c0,-3.53808 2.868177,-6.406257 6.406253,-6.406257c3.538076,0 6.406253,2.868177 6.406253,6.406257c0,3.538076 -2.868177,6.406248 -6.406253,6.406248c-3.538076,0 -6.406253,-2.868173 -6.406253,-6.406248m39.405562,0c0,-3.53808 2.868177,-6.406257 6.406253,-6.406257c3.538076,0 6.406248,2.868177 6.406248,6.406257c0,3.538076 -2.868173,6.406248 -6.406248,6.406248c-3.538068,0 -6.406253,-2.868173 -6.406253,-6.406248m-74.796535,18.393047l0,0c0,-33.96551 27.534491,-61.500005 61.500005,-61.500005c33.965518,0 61.500005,27.534491 61.500005,61.500005c0,33.965518 -27.534487,61.500005 -61.500005,61.500005c-33.96551,0 -61.500005,-27.534487 -61.500005,-61.500005zm0,0l0,0c0,-33.96551 27.534491,-61.500005 61.500005,-61.500005c33.965518,0 61.500005,27.534491 61.500005,61.500005c0,33.965518 -27.534487,61.500005 -61.500005,61.500005c-33.96551,0 -61.500005,-27.534487 -61.500005,-61.500005z" fill="black" id="svg_20" stroke-dasharray="null" stroke-linecap="null" stroke-linejoin="null" stroke-width="null"/>
  <path d="m152.075359,393.650236l1.766695,-6.800132l7.066804,-1.700036l-8.8335,8.500168l-44.166471,0l0,-50.999967l52.999972,0l0,42.499801" fill="#ffcc00" id="svg_33" stroke="#ffffff" stroke-dasharray="null" stroke-linecap="null" stroke-linejoin="null" stroke-width="3"/>
  <text fill="#000000" font-family="serif" font-size="24" id="svg_22" stroke="#ffffff" stroke-dasharray="null" stroke-linecap="null" stroke-linejoin="null" stroke-width="0" text-anchor="middle" transform="matrix(2.46107 0 0 1.62315 280.741 -136.206)" x="-58.785889" xml:space="preserve" y="318.603653">E</text>
 </g>
</svg>