<?xml version="1.0"?>
<svg width="512.001" height="512.001" xmlns="http://www.w3.org/2000/svg" xmlns:svg="http://www.w3.org/2000/svg" style="vector-effect: non-scaling-stroke;">
 <g class="layer">
  <title>Layer 1</title>
  <g id="svg_55">
   <g id="svg_1">
    <g id="svg_2">
     <path d="m484.083103,59.16412l-275.974293,0c-6.878731,0 -12.45423,5.652537 -12.45423,12.626314l0,98.38283l13.812465,-8.694461c3.514574,-2.213446 7.268242,-3.706526 11.094873,-4.527037l0,-72.535017l251.065833,0l0,182.101154l-251.06471,0l0,-29.463297l-24.908461,15.679618l0,26.411131c0,6.973777 5.575499,12.626314 12.45423,12.626314l275.974293,0c6.877609,0 12.45423,-5.652537 12.45423,-12.626314l0,-207.35492c0,-6.973777 -5.576622,-12.626314 -12.45423,-12.626314z" id="svg_3" stroke="#ffcc00" stroke-width="3"/>
    </g>
   </g>
   <g id="svg_4">
    <g id="svg_5">
     <path d="m303.013524,129.252398c-3.276602,-4.212944 -9.299982,-4.93331 -13.454385,-1.61371l-42.898902,34.291909c4.096033,2.714174 7.689182,6.350143 10.44045,10.841901c0.780143,1.271167 1.457016,2.57875 2.05868,3.904541l42.263562,-33.784353c4.155526,-3.320738 4.867196,-9.428483 1.590594,-13.640289z" id="svg_6"/>
    </g>
   </g>
   <g id="svg_7">
    <g id="svg_8">
     <circle cx="95.948897" cy="76.424445" id="svg_9" r="35.847301"/>
    </g>
   </g>
   <g id="svg_10">
    <g id="svg_11">
     <path d="m242.408175,183.78099c-5.03894,-8.477268 -15.700524,-11.082953 -23.817382,-5.819987l-35.028996,22.720581c-0.145926,-30.34766 -0.068473,-14.242139 -0.161641,-33.785943c-0.113373,-23.459366 -18.474243,-42.545826 -40.931145,-42.545826l-17.016104,0c-14.537606,39.387812 -9.854501,24.766899 -22.194235,58.199866l5.189356,-23.607123c0.359203,-1.768394 0.098781,-3.611839 -0.735243,-5.194951l-7.031392,-13.360288l6.240024,-11.854573c0.930559,-1.768394 -0.296342,-3.935498 -2.228179,-3.935498l-17.141825,0c-1.930714,0 -3.159861,2.167104 -2.228179,3.935498l6.252372,11.879199l-7.044862,13.384914c-0.817186,1.553795 -1.084343,3.359714 -0.754326,5.097619l4.495646,23.655203c-2.423496,-6.565808 -19.176933,-51.956544 -21.481443,-58.199866l-17.360714,0c-22.45578,0 -40.817772,19.085288 -40.931145,42.545826l-0.638707,132.746824c-0.047145,9.979465 7.65663,18.109622 17.209176,18.160047c0.030308,0 0.05837,0 0.088678,0c9.511013,0 17.246218,-8.030479 17.293364,-17.978282l0.638707,-132.746824c0,-0.021108 0,-0.042216 0,-0.062152c0.02694,-1.970094 1.570389,-3.548515 3.456203,-3.53327c1.885814,0.014072 3.40569,1.615946 3.40569,3.586041l0.007858,188.074809c15.834103,-0.703605 30.505287,5.262966 41.511482,15.740818l0,-73.371937l8.960984,0l0,84.166412c6.311865,9.695678 10.00604,21.393112 10.00604,33.977089c0,11.465245 -3.066693,22.196395 -8.384015,31.346779c5.462126,0.026972 10.7671,0.78452 15.826245,2.182348c6.820361,-6.181171 15.024774,-10.73115 24.063212,-13.05891c0,-327.577415 -0.37604,-125.038831 -0.37604,-269.032782c0,-2.086189 1.61529,-3.777187 3.612232,-3.780705c1.996942,-0.004691 3.618967,1.679271 3.627947,3.76546c0.060615,12.6731 0.251442,52.289584 0.31767,66.081416c0.03143,6.542355 3.446101,12.557005 8.927309,15.722055c5.471106,3.159187 12.162378,2.995012 17.492048,-0.462034l61.293447,-39.757205c8.11349,-5.261793 10.608827,-16.40338 5.569886,-24.880648z" fill="black" id="svg_12"/>
    </g>
   </g>
   <g id="svg_40"/>
   <g id="svg_41"/>
   <g id="svg_42"/>
   <g id="svg_43"/>
   <g id="svg_44"/>
   <g id="svg_45"/>
   <g id="svg_46"/>
   <g id="svg_47"/>
   <g id="svg_48"/>
   <g id="svg_49"/>
   <g id="svg_50"/>
   <g id="svg_51"/>
   <g id="svg_52"/>
   <g id="svg_53"/>
   <g id="svg_54"/>
   <rect fill="url(#svg_69)" height="105.599992" id="svg_67" stroke="#ffcc00" stroke-dasharray="null" stroke-linecap="null" stroke-linejoin="null" stroke-width="3" width="487.466666" x="10.933331" y="345.066655"/>
  </g>
  <g id="svg_62">
   <g id="svg_64">
    <text fill="#000000" font-family="serif" font-size="24" id="svg_56" stroke-dasharray="null" stroke-linecap="null" stroke-linejoin="null" stroke-width="19" text-anchor="middle" transform="matrix(1.00101 0 0 0.750483 38.8285 55.0033)" x="308.278317" xml:space="preserve" y="99.880259">01100101</text>
    <text fill="#000000" font-family="serif" font-size="24" id="svg_57" stroke-dasharray="null" stroke-linecap="null" stroke-linejoin="round" stroke-width="19" text-anchor="middle" transform="matrix(1.00101 0 0 0.750483 38.8285 55.0033)" x="306.144995" xml:space="preserve" y="128.680259">01100100</text>
    <text fill="#000000" font-family="serif" font-size="24" id="svg_58" stroke-dasharray="null" stroke-linecap="null" stroke-linejoin="round" stroke-width="19" text-anchor="middle" transform="matrix(1.00101 0 0 0.750483 38.8285 55.0033)" x="307.546599" xml:space="preserve" y="158.865383">01100001</text>
    <text fill="#000000" font-family="serif" font-size="24" id="svg_59" stroke-dasharray="null" stroke-linecap="null" stroke-linejoin="round" stroke-width="19" text-anchor="middle" transform="matrix(1.00101 0 0 0.750483 38.8285 55.0033)" x="304.086607" xml:space="preserve" y="190.863008">01100011</text>
    <text fill="#000000" font-family="serif" font-size="24" id="svg_60" stroke-dasharray="null" stroke-linecap="null" stroke-linejoin="round" stroke-width="19" text-anchor="middle" transform="matrix(1.00101 0 0 0.750483 38.8285 55.0033)" x="306.750461" xml:space="preserve" y="219.661675">01111001</text>
    <text fill="#000000" font-family="serif" font-size="24" id="svg_61" stroke-dasharray="null" stroke-linecap="null" stroke-linejoin="round" stroke-width="19" text-anchor="middle" transform="matrix(1.00101 0 0 0.750483 38.8285 55.0033)" x="307.82082" xml:space="preserve" y="244.1968">00001101</text>
   </g>
  </g>
  <text fill="#000000" font-family="serif" font-size="24" id="svg_66" stroke-dasharray="null" stroke-linecap="null" stroke-linejoin="null" stroke-width="19" text-anchor="middle" transform="matrix(0.877778 0 0 0.877778 41.0323 32.4538)" x="386.163715" xml:space="preserve" y="291.734835">00001010</text>
 </g>
 <defs>
  <linearGradient id="svg_69">
   <stop offset="0" stop-color="#4c4c4c"/>
   <stop offset="1" stop-color="#b3b3b3"/>
  </linearGradient>
 </defs>
</svg>